<svg width="110" height="90" viewBox="0 0 110 90" fill="none" xmlns="http://www.w3.org/2000/svg">
<path d="M2.45937 2.642L2.63237 2.468C4.20637 0.888 6.34237 0 8.56937 0H68.1274C70.1614 0 72.1254 0.741001 73.6564 2.085L107.133 31.481C110.008 34.006 110.822 38.16 109.114 41.59L104.152 51.549C102.73 54.403 99.8234 56.207 96.6434 56.207H74.6834C68.4424 56.207 64.3834 49.616 67.1744 44.013L68.9614 40.425C70.3834 37.571 73.2904 35.767 76.4704 35.767C83.9504 35.767 87.6964 26.691 82.4074 21.384L73.7414 12.687C72.1674 11.107 70.0314 10.219 67.8044 10.219H61.1964C58.0164 10.219 55.1094 12.022 53.6874 14.877L48.1454 26.001C46.7234 28.855 43.8164 30.659 40.6364 30.659H8.56937C6.34237 30.659 4.20737 29.771 2.63237 28.191L2.45937 28.017C0.885366 26.436 0.000366211 24.293 0.000366211 22.058V8.599C0.000366211 6.365 0.885366 4.222 2.45937 2.642Z" fill="white"/>
<path d="M107.541 87.006L107.368 87.18C105.794 88.76 103.658 89.648 101.431 89.648H41.8733C39.8393 89.648 37.8753 88.907 36.3443 87.563L2.86733 58.167C-0.00766873 55.642 -0.82167 51.488 0.88633 48.058L5.84833 38.099C7.27033 35.245 10.1773 33.441 13.3573 33.441H35.3163C41.5573 33.441 45.6163 40.032 42.8253 45.635L41.0383 49.223C39.6163 52.077 36.7093 53.881 33.5293 53.881C26.0493 53.881 22.3033 62.957 27.5923 68.264L36.2583 76.961C37.8323 78.541 39.9683 79.429 42.1953 79.429H48.8033C51.9833 79.429 54.8903 77.626 56.3123 74.771L61.8543 63.647C63.2763 60.793 66.1833 58.989 69.3633 58.989H101.429C103.656 58.989 105.791 59.877 107.366 61.457L107.539 61.631C109.113 63.211 109.998 65.354 109.998 67.589V81.048C110 83.283 109.115 85.426 107.541 87.006Z" fill="white"/>
</svg>
