<svg width="238" height="49" viewBox="0 0 238 49" fill="none" xmlns="http://www.w3.org/2000/svg">
<path d="M1.34126 1.44108L1.43562 1.34617C2.29416 0.48436 3.45924 0 4.67396 0H37.1599C38.2693 0 39.3406 0.404179 40.1757 1.13726L58.4357 17.1713C60.0039 18.5486 60.4478 20.8144 59.5162 22.6853L56.8097 28.1174C56.0341 29.6741 54.4484 30.6581 52.7139 30.6581H40.7358C37.3317 30.6581 35.1177 27.063 36.6401 24.0069L37.6148 22.0498C38.3904 20.4931 39.976 19.5091 41.7106 19.5091C45.7905 19.5091 47.8338 14.5586 44.9489 11.6639L40.222 6.92012C39.3635 6.05831 38.1984 5.57395 36.9837 5.57395H33.3794C31.6448 5.57395 30.0592 6.5574 29.2836 8.11466L26.2607 14.1822C25.4851 15.739 23.8994 16.7229 22.1649 16.7229H4.67396C3.45924 16.7229 2.29471 16.2386 1.43562 15.3768L1.34126 15.2819C0.482723 14.4195 2.30466e-09 13.2506 2.30466e-09 12.0315V4.69032C2.30466e-09 3.47179 0.482723 2.30289 1.34126 1.44108Z" fill="currentColor"/>
<path d="M58.6584 47.4574L58.564 47.5523C57.7055 48.4141 56.5404 48.8985 55.3257 48.8985H22.8398C21.7304 48.8985 20.6591 48.4943 19.824 47.7612L1.56399 31.7272C-0.00418293 30.3499 -0.44818 28.0841 0.483449 26.2132L3.18997 20.7811C3.9656 19.2244 5.55122 18.2404 7.28575 18.2404H19.2633C22.6674 18.2404 24.8814 21.8355 23.3591 24.8916L22.3844 26.8487C21.6087 28.4054 20.0231 29.3894 18.2886 29.3894C14.2086 29.3894 12.1653 34.3399 15.0502 37.2346L19.7771 41.9784C20.6356 42.8402 21.8007 43.3245 23.0154 43.3245H26.6198C28.3543 43.3245 29.9399 42.3411 30.7156 40.7838L33.7384 34.7163C34.5141 33.1595 36.0997 32.1755 37.8342 32.1755H55.3246C56.5393 32.1755 57.7039 32.6599 58.563 33.5217L58.6573 33.6166C59.5159 34.4784 59.9986 35.6473 59.9986 36.8664V44.2076C59.9997 45.4267 59.5169 46.5956 58.6584 47.4574Z" fill="currentColor"/>
<path d="M87.2963 39.5802L78.9987 31.2826V9.3183H82.9035V29.6719L88.3213 35.0897C89.0534 35.8219 90.4201 35.8219 91.1523 35.0897L96.5701 29.6719V9.3183H100.475V31.2826L92.1773 39.5802H87.2963Z" fill="currentColor"/>
<path d="M114.609 39.5802L106.311 31.2826V9.3183H110.216V29.6719L115.634 35.0897C116.366 35.8219 117.732 35.8219 118.465 35.0897L123.882 29.6719V9.3183H127.787V31.2826L119.49 39.5802H114.609Z" fill="currentColor"/>
<path d="M133.623 39.5802V35.6754H142.409V13.2231H133.623V9.3183H155.1V13.2231H146.314V35.6754H155.1V39.5802H133.623Z" fill="currentColor"/>
<path d="M160.936 39.5802V9.3183H178.019L182.412 13.7112V35.1873L178.019 39.5802H160.936ZM174.505 35.6754C176.799 35.6754 178.507 33.9671 178.507 31.6731V17.2254C178.507 14.9314 176.799 13.2231 174.505 13.2231H164.841V35.6754H174.505Z" fill="currentColor"/>
<path d="M188.248 39.5802V9.3183H209.724V13.2231H192.153V22.4969H207.772V26.4016H192.153V35.6754H209.724V39.5802H188.248Z" fill="currentColor"/>
<path d="M219.953 39.5802L215.56 35.1873V13.7112L219.953 9.3183H232.644L237.037 13.7112V35.1873L232.644 39.5802H219.953ZM219.465 31.6731C219.465 33.9671 221.174 35.6754 223.468 35.6754H229.13C231.424 35.6754 233.132 33.9671 233.132 31.6731V17.2254C233.132 14.9314 231.424 13.2231 229.13 13.2231H223.468C221.174 13.2231 219.465 14.9314 219.465 17.2254V31.6731Z" fill="currentColor"/>
</svg>
